<svg width="190" height="34" viewBox="0 0 190 34" fill="none" xmlns="http://www.w3.org/2000/svg">
<path d="M40.4134 0.735992L34.8454 34H24.6214L20.4934 8.60799L16.1254 34H6.14143L0.669434 0.735992H8.54143L11.8534 28.048L16.4614 0.735992H24.7174L29.0374 28.048L32.9254 0.735992H40.4134Z" fill="#D0D0D0"/>
<path d="M54.2701 0.735992V34H46.3981V0.735992H54.2701Z" fill="#D0D0D0"/>
<path d="M70.7326 0.735992V27.76H83.6926L82.8766 34H62.8606V0.735992H70.7326Z" fill="#D0D0D0"/>
<path d="M97.7419 0.735992V27.76H110.702L109.886 34H89.8699V0.735992H97.7419Z" fill="#D0D0D0"/>
<path d="M124.751 0.735992V34H116.879V0.735992H124.751Z" fill="#D0D0D0"/>
<path d="M150.862 34L149.134 26.848H139.438L137.758 34H129.598L139.63 0.735992H149.182L159.214 34H150.862ZM140.782 21.136H147.79L144.286 6.44799L140.782 21.136Z" fill="#D0D0D0"/>
<path d="M189.686 34H179.654L170.054 8.22399C170.374 10.752 170.614 12.992 170.774 14.944C170.966 16.864 171.062 19.152 171.062 21.808V34H164.054V0.735992H173.846L183.686 26.56C182.982 22.176 182.63 18.048 182.63 14.176V0.735992H189.686V34Z" fill="#D0D0D0"/>
</svg>
